<svg width="1200" height="260" viewBox="0 0 1200 260" xmlns="http://www.w3.org/2000/svg">
  <defs>
    <filter id="blur1" x="-200%" y="-200%" width="500%" height="500%"><feGaussianBlur stdDeviation="55"/></filter>
    <filter id="blur2" x="-200%" y="-200%" width="500%" height="500%"><feGaussianBlur stdDeviation="70"/></filter>
    <filter id="grain">
      <feTurbulence type="fractalNoise" baseFrequency="0.9" numOctaves="2" seed="4" result="n"/>
      <feColorMatrix in="n" type="matrix" values="0 0 0 0 1  0 0 0 0 1  0 0 0 0 1  0 0 0 0.04 0"/>
    </filter>
    <linearGradient id="edgeFade" x1="0%" y1="0%" x2="100%" y2="0%">
      <stop offset="0%" stop-color="#050510"/>
      <stop offset="15%" stop-color="#050510" stop-opacity="0"/>
      <stop offset="85%" stop-color="#050510" stop-opacity="0"/>
      <stop offset="100%" stop-color="#050510"/>
    </linearGradient>
  </defs>

  <rect width="1200" height="260" fill="#06060f"/>

  <g style="mix-blend-mode:screen">
    <ellipse cx="180" cy="90" rx="260" ry="180" fill="#2e6bff" filter="url(#blur1)" opacity="0.65"/>
    <ellipse cx="520" cy="180" rx="240" ry="150" fill="#8a2be2" filter="url(#blur1)" opacity="0.6"/>
    <ellipse cx="780" cy="70" rx="230" ry="160" fill="#ff2d78" filter="url(#blur1)" opacity="0.6"/>
    <ellipse cx="1030" cy="170" rx="260" ry="170" fill="#ff8a2b" filter="url(#blur2)" opacity="0.6"/>
    <ellipse cx="900" cy="200" rx="200" ry="120" fill="#ffd23f" filter="url(#blur2)" opacity="0.35"/>
    <ellipse cx="330" cy="40" rx="180" ry="110" fill="#3fe0ff" filter="url(#blur1)" opacity="0.35"/>
  </g>

  <rect width="1200" height="260" filter="url(#grain)" opacity="0.5"/>

  <!-- stars -->
  <g fill="#ffffff">
    <circle cx="60" cy="40" r="1.4" opacity="0.9"/>
    <circle cx="140" cy="220" r="1" opacity="0.7"/>
    <circle cx="210" cy="30" r="1.6" opacity="0.8"/>
    <circle cx="300" cy="230" r="1" opacity="0.6"/>
    <circle cx="380" cy="60" r="1.3" opacity="0.9"/>
    <circle cx="470" cy="200" r="1" opacity="0.5"/>
    <circle cx="560" cy="45" r="1.5" opacity="0.85"/>
    <circle cx="650" cy="150" r="1" opacity="0.6"/>
    <circle cx="740" cy="80" r="1.4" opacity="0.8"/>
    <circle cx="830" cy="180" r="1" opacity="0.6"/>
    <circle cx="920" cy="50" r="1.6" opacity="0.9"/>
    <circle cx="1010" cy="120" r="1" opacity="0.6"/>
    <circle cx="1100" cy="70" r="1.3" opacity="0.8"/>
    <circle cx="1160" cy="200" r="1" opacity="0.5"/>
    <circle cx="40" cy="150" r="1" opacity="0.5"/>
    <circle cx="1180" cy="30" r="1.2" opacity="0.7"/>
  </g>

  <rect width="1200" height="260" fill="url(#edgeFade)" opacity="0.5"/>
  <rect width="1200" height="260" fill="#000000" opacity="0.15"/>
</svg>
